<svg width="24" height="24" viewBox="0 0 24 24" fill="none" xmlns="http://www.w3.org/2000/svg">
<path d="M18 12C18 15.3137 15.3137 18 12 18C8.68629 18 6 15.3137 6 12C6 8.68629 8.68629 6 12 6C15.3137 6 18 8.68629 18 12Z" fill="#001E50"/>
<path fill-rule="evenodd" clip-rule="evenodd" d="M12 0C18.6274 0 24 5.37258 24 12C24 18.6274 18.6274 24 12 24C5.37258 24 0 18.6274 0 12C0 5.37258 5.37258 0 12 0ZM12 1.33C6.10712 1.33 1.33 6.10712 1.33 12C1.33 17.8929 6.10712 22.67 12 22.67C17.8929 22.67 22.67 17.8929 22.67 12C22.67 6.10712 17.8929 1.33 12 1.33Z" fill="#001E50"/>
</svg>
